<svg width="20" height="20" viewBox="0 0 20 20" fill="none" xmlns="http://www.w3.org/2000/svg">
<mask id="mask0_53_509" style="mask-type:alpha" maskUnits="userSpaceOnUse" x="0" y="0" width="20" height="20">
<rect width="20" height="20" fill="#D9D9D9"/>
</mask>
<g mask="url(#mask0_53_509)">
<path d="M9.16663 10.8337H4.99996C4.76385 10.8337 4.56593 10.7538 4.40621 10.5941C4.24649 10.4344 4.16663 10.2364 4.16663 10.0003C4.16663 9.76421 4.24649 9.5663 4.40621 9.40658C4.56593 9.24685 4.76385 9.16699 4.99996 9.16699H9.16663V5.00033C9.16663 4.76421 9.24649 4.5663 9.40621 4.40658C9.56593 4.24685 9.76385 4.16699 9.99996 4.16699C10.2361 4.16699 10.434 4.24685 10.5937 4.40658C10.7534 4.5663 10.8333 4.76421 10.8333 5.00033V9.16699H15C15.2361 9.16699 15.434 9.24685 15.5937 9.40658C15.7534 9.5663 15.8333 9.76421 15.8333 10.0003C15.8333 10.2364 15.7534 10.4344 15.5937 10.5941C15.434 10.7538 15.2361 10.8337 15 10.8337H10.8333V15.0003C10.8333 15.2364 10.7534 15.4344 10.5937 15.5941C10.434 15.7538 10.2361 15.8337 9.99996 15.8337C9.76385 15.8337 9.56593 15.7538 9.40621 15.5941C9.24649 15.4344 9.16663 15.2364 9.16663 15.0003V10.8337Z" fill="#E5E1E3" fill-opacity="0.8"/>
</g>
</svg>
