<svg width="48" height="48" viewBox="0 0 48 48" fill="none" xmlns="http://www.w3.org/2000/svg">
<rect x="0.5" y="0.5" width="47" height="47" rx="23.5" stroke="#817D82"/>
<path d="M24.0078 16.6865C24.0934 16.6866 24.1668 16.7128 24.249 16.7949C24.3313 16.8809 24.3574 16.958 24.3574 17.0439C24.3573 17.1308 24.3308 17.2048 24.249 17.2871L17.8877 23.6484H31.2979C31.4194 23.6485 31.4945 23.6838 31.5586 23.7471C31.6207 23.8084 31.6553 23.8801 31.6553 24C31.6553 24.1199 31.6207 24.1916 31.5586 24.2529C31.4945 24.3162 31.4194 24.3515 31.2979 24.3516H17.8877L24.2432 30.707V30.7061C24.3254 30.7885 24.3537 30.8653 24.3545 30.957V30.958C24.355 31.0245 24.3404 31.0829 24.2988 31.1426L24.2471 31.2041C24.1671 31.2851 24.0939 31.3113 24.0049 31.3105C23.9104 31.3096 23.8321 31.2796 23.749 31.1973L16.8008 24.249C16.7476 24.1949 16.7219 24.1527 16.71 24.124V24.123C16.6949 24.0867 16.6865 24.0466 16.6865 23.999C16.6866 23.9514 16.6952 23.9123 16.71 23.877V23.876C16.7218 23.8475 16.7473 23.8051 16.8008 23.751L23.751 16.8008C23.8414 16.7136 23.9211 16.6865 24.0078 16.6865Z" fill="#E5E1E3" stroke="#E5E1E3"/>
</svg>
