<svg width="24" height="24" viewBox="0 0 24 24" fill="none" xmlns="http://www.w3.org/2000/svg">
<mask id="mask0_260_1351" style="mask-type:alpha" maskUnits="userSpaceOnUse" x="0" y="0" width="24" height="24">
<rect width="24" height="24" fill="#D9D9D9"/>
</mask>
<g mask="url(#mask0_260_1351)">
<path d="M16.1755 13.0011H5.00049C4.71715 13.0011 4.47965 12.9053 4.28799 12.7136C4.09632 12.5219 4.00049 12.2844 4.00049 12.0011C4.00049 11.7178 4.09632 11.4803 4.28799 11.2886C4.47965 11.0969 4.71715 11.0011 5.00049 11.0011H16.1755L11.2755 6.10109C11.0755 5.90109 10.9797 5.66775 10.988 5.40109C10.9963 5.13442 11.1005 4.90109 11.3005 4.70109C11.5005 4.51775 11.7338 4.42192 12.0005 4.41359C12.2672 4.40525 12.5005 4.50109 12.7005 4.70109L19.3005 11.3011C19.4005 11.4011 19.4713 11.5094 19.513 11.6261C19.5547 11.7428 19.5755 11.8678 19.5755 12.0011C19.5755 12.1344 19.5547 12.2594 19.513 12.3761C19.4713 12.4928 19.4005 12.6011 19.3005 12.7011L12.7005 19.3011C12.5172 19.4844 12.288 19.5761 12.013 19.5761C11.738 19.5761 11.5005 19.4844 11.3005 19.3011C11.1005 19.1011 11.0005 18.8636 11.0005 18.5886C11.0005 18.3136 11.1005 18.0761 11.3005 17.8761L16.1755 13.0011Z" fill="#F199CD"/>
</g>
</svg>
