<svg width="48" height="48" viewBox="0 0 48 48" fill="none" xmlns="http://www.w3.org/2000/svg">
<rect x="0.5" y="0.5" width="47" height="47" rx="23.5" stroke="#817D82"/>
<path d="M23.9951 16.6895C24.0661 16.6901 24.1279 16.7068 24.1895 16.75L24.251 16.8027L31.1992 23.751C31.2524 23.8051 31.2781 23.8473 31.29 23.876V23.877C31.3052 23.9133 31.3135 23.9534 31.3135 24.001C31.3134 24.0486 31.3048 24.0877 31.29 24.123V24.124C31.2782 24.1525 31.2527 24.1948 31.1992 24.249L24.2451 31.1973C24.1538 31.2875 24.0752 31.3135 23.9922 31.3135C23.9115 31.3134 23.8393 31.2889 23.7559 31.2031L23.751 31.1982L23.6992 31.1377C23.6571 31.0781 23.6426 31.02 23.6426 30.9551C23.6426 30.8904 23.6573 30.8328 23.6992 30.7734L23.751 30.7129L30.1123 24.3516H16.7021C16.5801 24.3515 16.5078 24.3164 16.4473 24.2559H16.4463C16.3854 24.195 16.3506 24.122 16.3506 24C16.3506 23.878 16.3854 23.805 16.4463 23.7441H16.4473C16.5078 23.6836 16.58 23.6485 16.7021 23.6484H30.1123L23.7568 17.293C23.6955 17.2316 23.6637 17.1732 23.6514 17.1084L23.6455 17.041C23.6446 16.9511 23.6708 16.8775 23.751 16.7969L23.752 16.7959C23.8321 16.7153 23.9055 16.6887 23.9951 16.6895Z" fill="#E5E1E3" stroke="#E5E1E3"/>
</svg>
