<svg width="1508" height="263" viewBox="0 0 1508 263" fill="none" xmlns="http://www.w3.org/2000/svg">
<path d="M0 202.634V199.504L11.9963 198.722C15.2997 198.548 17.4729 197.505 18.5161 195.593C19.5593 193.68 20.0808 190.029 20.0808 184.639V27.6437C20.0808 23.2972 19.4723 20.3416 18.2553 18.7769C17.2121 17.0383 14.7781 16.082 10.9532 15.9082L0 15.3866V12.2571H82.9312C93.3628 12.2571 103.447 13.2134 113.183 15.1258C122.919 16.8644 131.96 19.907 140.305 24.2535C148.65 28.4261 155.952 34.0766 162.211 41.2048C168.644 48.3331 173.599 57.113 177.076 67.5446C180.727 77.8024 182.553 89.9726 182.553 104.055C182.553 121.963 180.032 137.176 174.99 149.693C169.948 162.211 162.733 172.382 153.345 180.206C144.13 188.03 133.003 193.767 119.963 197.418C107.098 200.895 92.7543 202.634 76.9331 202.634H0ZM77.7154 198.461C87.2777 198.461 95.623 196.983 102.751 194.028C110.053 191.072 116.225 186.117 121.267 179.163C126.309 172.034 130.047 162.385 132.481 150.215C135.089 138.045 136.393 122.832 136.393 104.577C136.393 83.8875 134.133 67.11 129.613 54.2443C125.092 41.2048 118.659 31.6425 110.314 25.5574C101.969 19.4723 92.1458 16.4298 80.8449 16.4298H63.6328V197.679C65.1975 197.853 67.1969 198.027 69.6309 198.2C72.065 198.374 74.7598 198.461 77.7154 198.461Z" fill="#E5E1E3"/>
<path d="M202.383 202.634V199.504L213.336 198.461C215.944 198.287 217.596 197.418 218.291 195.853C219.161 194.115 219.595 191.072 219.595 186.726V87.8862C219.595 82.3227 219.074 78.4109 218.031 76.1507C216.987 73.8905 214.467 72.5866 210.468 72.2388L200.558 71.4565L200.818 68.5878L259.235 65.7191L261.061 67.5446V186.986C261.061 191.333 261.496 194.289 262.365 195.853C263.408 197.244 265.408 198.113 268.363 198.461L279.056 199.504V202.634H202.383ZM237.59 44.0735C229.592 44.0735 223.333 42.161 218.813 38.3361C214.467 34.3373 212.293 28.8608 212.293 21.9064C212.293 15.2997 214.467 9.99695 218.813 5.99817C223.16 1.99939 229.418 0 237.59 0C245.935 0 252.194 1.99939 256.367 5.99817C260.713 9.82308 262.887 15.1258 262.887 21.9064C262.887 28.6869 260.626 34.0766 256.106 38.0753C251.759 42.0741 245.587 44.0735 237.59 44.0735Z" fill="#E5E1E3"/>
<path d="M283.896 202.634V199.504L295.632 197.418C297.544 197.07 299.37 196.549 301.109 195.853C302.847 195.158 304.586 194.115 306.324 192.724C308.237 191.159 310.149 189.16 312.062 186.726L345.964 143.435L306.324 85.7999C303.543 81.6273 300.848 78.4109 298.24 76.1507C295.632 73.8905 292.155 72.4127 287.808 71.7173L279.985 70.4133L280.245 67.5446H365.784V70.4133L352.745 72.2388C349.963 72.5866 348.398 73.7167 348.051 75.6291C347.703 77.3677 348.659 79.9756 350.919 83.4528L372.826 115.53L395.775 86.0607C399.079 81.8881 400.47 78.5847 399.948 76.1507C399.6 73.7166 397.688 72.3258 394.211 71.978L382.997 70.4133L383.257 67.5446H435.155V70.4133L424.201 71.978C420.724 72.4996 417.856 73.282 415.595 74.3252C413.335 75.1945 411.162 76.6723 409.076 78.7586C406.989 80.8449 404.381 83.8005 401.252 87.6255L375.955 120.485L418.725 183.596C420.811 186.552 422.811 189.073 424.723 191.159C426.809 193.072 428.983 194.549 431.243 195.593C433.503 196.636 435.85 197.418 438.284 197.94L446.369 199.504V202.634H359.786V199.504L371.261 198.461C374.738 198.113 376.738 196.896 377.259 194.81C377.781 192.724 376.825 189.855 374.391 186.204L349.355 148.911L318.581 188.03C317.364 189.768 316.495 191.333 315.974 192.724C315.452 194.115 315.8 195.332 317.017 196.375C318.234 197.244 320.494 197.853 323.797 198.2L337.88 199.504V202.634H283.896Z" fill="#E5E1E3"/>
<path d="M451.203 202.634V199.504L462.157 198.461C464.764 198.287 466.416 197.418 467.112 195.853C467.981 194.115 468.416 191.072 468.416 186.726V87.8862C468.416 82.3227 467.894 78.4109 466.851 76.1507C465.808 73.8905 463.287 72.5866 459.288 72.2388L449.378 71.4565L449.639 68.5878L508.056 65.7191L509.881 67.5446V186.986C509.881 191.333 510.316 194.289 511.185 195.853C512.228 197.244 514.228 198.113 517.183 198.461L527.876 199.504V202.634H451.203ZM486.41 44.0735C478.413 44.0735 472.154 42.161 467.633 38.3361C463.287 34.3373 461.113 28.8608 461.113 21.9064C461.113 15.2997 463.287 9.99695 467.633 5.99817C471.98 1.99939 478.239 0 486.41 0C494.755 0 501.014 1.99939 505.187 5.99817C509.533 9.82308 511.707 15.1258 511.707 21.9064C511.707 28.6869 509.447 34.0766 504.926 38.0753C500.58 42.0741 494.408 44.0735 486.41 44.0735Z" fill="#E5E1E3"/>
<path d="M602.058 202.634V199.504L614.055 198.722C617.358 198.548 619.531 197.505 620.574 195.593C621.617 193.506 622.139 189.681 622.139 184.118V27.6437C622.139 23.2972 621.531 20.3416 620.313 18.7769C619.27 17.0383 616.836 16.082 613.011 15.9082L602.058 15.3866V12.2571H681.338C697.681 12.2571 710.895 13.9957 720.978 17.4729C731.062 20.9501 738.451 25.9921 743.146 32.5988C747.84 39.0316 750.187 46.6814 750.187 55.5483C750.187 64.4151 748.361 71.8911 744.71 77.9762C741.059 84.0613 735.844 89.0163 729.063 92.8412C722.456 96.4923 714.546 99.1871 705.331 100.926V102.23C723.065 103.099 736.713 107.445 746.275 115.269C756.011 122.919 760.879 133.785 760.879 147.868C760.879 160.038 757.924 170.209 752.012 178.38C746.275 186.552 737.408 192.637 725.412 196.636C713.416 200.634 698.203 202.634 679.774 202.634H602.058ZM678.991 198.461C687.163 198.461 693.943 196.723 699.333 193.245C704.896 189.768 709.069 184.552 711.851 177.598C714.633 170.47 716.023 161.603 716.023 150.997C716.023 139.001 714.372 129.7 711.068 123.093C707.939 116.486 703.506 111.792 697.768 109.01C692.031 106.228 685.424 104.838 677.948 104.838C672.558 104.838 668.473 105.098 665.691 105.62V197.418C667.603 197.766 669.69 198.027 671.95 198.2C674.21 198.374 676.557 198.461 678.991 198.461ZM675.079 100.665C681.164 100.665 686.467 99.361 690.988 96.7531C695.682 93.9713 699.333 89.5379 701.941 83.4528C704.549 77.3677 705.853 69.2832 705.853 59.1993C705.853 48.5939 704.723 40.2486 702.462 34.1635C700.202 27.9045 696.725 23.4711 692.031 20.8632C687.51 18.0814 681.86 16.6905 675.079 16.6905H665.691V100.404C666.908 100.578 668.299 100.665 669.864 100.665C671.428 100.665 673.167 100.665 675.079 100.665Z" fill="#E5E1E3"/>
<path d="M832.242 206.285C818.333 206.285 807.554 202.286 799.904 194.289C792.428 186.291 788.69 174.295 788.69 158.3V85.5391C788.69 80.3233 788.169 76.7592 787.125 74.8467C786.082 72.9343 783.822 71.8911 780.345 71.7173L772.521 71.1957V68.327L828.069 65.7191L830.156 67.5446V161.69C830.156 169.861 830.677 176.294 831.72 180.988C832.938 185.683 834.85 188.986 837.458 190.898C840.24 192.811 843.891 193.767 848.411 193.767C853.279 193.767 857.539 192.463 861.19 189.855C865.015 187.073 867.97 183.248 870.057 178.38C872.143 173.512 873.186 167.949 873.186 161.69V85.7999C873.186 81.1057 872.751 77.6285 871.882 75.3683C871.013 73.1081 868.84 71.8911 865.362 71.7173L857.539 71.1957L857.799 68.327L912.565 65.7191L914.652 67.5446V184.9C914.652 189.421 915.173 192.724 916.216 194.81C917.434 196.723 919.867 197.853 923.519 198.2L933.429 198.983V202.112L879.445 204.72L874.49 179.684H873.969C871.187 185.943 867.796 191.072 863.798 195.071C859.973 198.896 855.452 201.678 850.237 203.416C845.021 205.329 839.023 206.285 832.242 206.285Z" fill="#E5E1E3"/>
<path d="M947.819 202.634V199.504L958.25 198.461C960.858 198.287 962.51 197.418 963.206 195.853C964.075 194.115 964.509 191.072 964.509 186.726V87.8862C964.509 82.3227 963.988 78.4109 962.945 76.1507C961.902 73.8905 959.381 72.5866 955.382 72.2388L945.472 71.4565L945.733 68.5878L1002.85 65.7191L1004.41 67.5446V95.4492H1004.93C1008.41 84.8437 1013.71 76.9331 1020.84 71.7173C1027.97 66.5015 1035.53 63.8936 1043.53 63.8936C1052.92 63.8936 1060.22 66.5884 1065.44 71.978C1070.82 77.1938 1073.52 84.1483 1073.52 92.8412C1073.52 96.84 1072.82 100.665 1071.43 104.316C1070.04 107.793 1067.78 110.662 1064.65 112.922C1061.52 115.008 1057.26 116.052 1051.87 116.052C1045.62 116.052 1040.83 114.574 1037.53 111.618C1034.4 108.663 1032.84 105.185 1032.84 101.187C1032.84 98.9264 1033.27 96.6662 1034.14 94.406C1035.01 91.9719 1036.4 89.1033 1038.31 85.7999C1040.4 82.4966 1043.27 78.4978 1046.92 73.8036C1042.57 72.2388 1037.97 72.065 1033.1 73.282C1028.4 74.3252 1023.97 76.5853 1019.8 80.0625C1015.8 83.5397 1012.49 88.0601 1009.89 93.6236C1007.28 99.1871 1005.98 105.707 1005.98 113.183V186.726C1005.98 190.724 1006.32 193.593 1007.02 195.332C1007.71 196.896 1009.71 197.853 1013.02 198.2L1029.71 199.504V202.634H947.819Z" fill="#E5E1E3"/>
<path d="M1149.76 262.616C1136.89 262.616 1126.11 261.833 1117.42 260.268C1108.73 258.878 1101.86 256.878 1096.82 254.27C1091.95 251.662 1088.47 248.533 1086.39 244.882C1084.3 241.231 1083.26 237.145 1083.26 232.625C1083.26 227.757 1084.39 223.584 1086.65 220.107C1089.08 216.63 1092.65 213.761 1097.34 211.501C1102.21 209.414 1108.21 207.937 1115.34 207.067V205.763C1105.25 204.025 1098.12 200.808 1093.95 196.114C1089.78 191.42 1087.69 186.378 1087.69 180.988C1087.69 175.077 1089.34 169.948 1092.65 165.602C1095.95 161.081 1101.34 155.431 1108.82 148.65V147.607C1102.9 144.652 1098.04 140.392 1094.21 134.828C1090.39 129.265 1088.47 121.702 1088.47 112.14C1088.47 102.056 1091.17 93.4498 1096.56 86.3215C1101.95 79.1932 1109.34 73.7167 1118.73 69.8917C1128.29 65.893 1139.33 63.8936 1151.85 63.8936C1156.54 63.8936 1161.15 64.3282 1165.67 65.1975C1170.36 65.893 1174.88 66.9361 1179.23 68.327C1183.75 69.7179 1187.92 71.4565 1191.75 73.5428C1194.01 63.1112 1196.96 54.8528 1200.61 48.7677C1204.27 42.6826 1209.83 39.6401 1217.3 39.6401C1220.96 39.6401 1224.35 40.4225 1227.48 41.9872C1230.6 43.5519 1233.04 45.7252 1234.78 48.5069C1236.69 51.2887 1237.65 54.592 1237.65 58.417C1237.65 63.1112 1235.99 67.2838 1232.69 70.9349C1229.56 74.5859 1225.3 76.4115 1219.91 76.4115C1216.44 76.4115 1213.65 75.5422 1211.57 73.8036C1209.65 71.8911 1207.83 69.544 1206.09 66.7622L1202.18 60.2425C1200.96 62.8504 1199.92 65.3714 1199.05 67.8054C1198.18 70.2394 1197.31 73.1951 1196.44 76.6723C1201.31 81.0188 1205.31 86.1476 1208.44 92.0589C1211.57 97.9701 1213.13 104.142 1213.13 110.575C1213.13 119.79 1210.7 127.961 1205.83 135.089C1201.14 142.217 1194.27 147.868 1185.23 152.041C1176.19 156.213 1165.32 158.3 1152.63 158.3C1144.63 158.3 1137.42 157.604 1130.98 156.213C1124.55 154.648 1119.25 152.91 1115.07 150.997C1112.47 153.779 1110.47 156.126 1109.08 158.039C1107.69 159.951 1106.99 161.864 1106.99 163.776C1106.99 166.036 1107.6 167.949 1108.82 169.514C1110.21 171.078 1112.38 172.208 1115.34 172.904C1118.29 173.599 1122.12 173.947 1126.81 173.947H1171.93C1191.92 173.947 1206.79 176.903 1216.52 182.814C1226.26 188.725 1231.13 198.287 1231.13 211.501C1231.13 216.021 1230.34 220.628 1228.78 225.323C1227.21 230.191 1224.61 234.798 1220.96 239.144C1217.3 243.665 1212.35 247.664 1206.09 251.141C1200.01 254.618 1192.27 257.4 1182.88 259.486C1173.67 261.572 1162.63 262.616 1149.76 262.616ZM1151.32 256.878C1160.02 256.878 1167.32 255.487 1173.23 252.706C1179.14 250.098 1183.58 246.534 1186.53 242.013C1189.49 237.493 1190.96 232.538 1190.96 227.148C1190.96 220.194 1188.7 215.152 1184.18 212.022C1179.84 208.893 1173.75 207.328 1165.93 207.328H1123.42C1120.81 209.936 1118.9 213.065 1117.68 216.717C1116.47 220.541 1115.86 224.106 1115.86 227.409C1115.86 237.319 1118.73 244.708 1124.46 249.576C1130.2 254.444 1139.15 256.878 1151.32 256.878ZM1151.06 152.562C1158.19 152.562 1163.49 149.346 1166.97 142.913C1170.45 136.306 1172.19 126.135 1172.19 112.401C1172.19 97.4485 1170.19 86.5823 1166.19 79.8018C1162.36 72.8473 1156.89 69.3701 1149.76 69.3701C1142.46 69.3701 1137.24 72.7604 1134.11 79.541C1130.98 86.1476 1129.42 96.3185 1129.42 110.053C1129.42 124.31 1131.33 135.002 1135.16 142.131C1139.15 149.085 1144.46 152.562 1151.06 152.562Z" fill="#E5E1E3"/>
<path d="M1305.94 206.285C1292.38 206.285 1280.64 203.677 1270.73 198.461C1260.82 193.072 1253.17 185.248 1247.78 174.99C1242.57 164.732 1239.96 152.301 1239.96 137.697C1239.96 121.876 1243.09 108.489 1249.35 97.5355C1255.78 86.5823 1264.3 78.237 1274.9 72.4996C1285.68 66.7622 1297.77 63.8936 1311.15 63.8936C1322.46 63.8936 1332.19 65.893 1340.36 69.8917C1348.71 73.8905 1355.14 79.6279 1359.66 87.1039C1364.18 94.5798 1366.44 103.36 1366.44 113.444C1366.44 115.704 1366.35 117.964 1366.18 120.224C1366.18 122.484 1366.09 124.831 1365.92 127.266H1282.99C1282.82 138.914 1284.12 148.737 1286.9 156.735C1289.86 164.559 1294.29 170.47 1300.2 174.469C1306.11 178.467 1313.33 180.467 1321.85 180.467C1329.15 180.467 1336.19 179.424 1342.97 177.337C1349.75 175.077 1356.97 170.731 1364.62 164.298L1367.22 166.123C1361.14 178.989 1352.88 188.899 1342.45 195.853C1332.19 202.808 1320.02 206.285 1305.94 206.285ZM1282.99 123.093H1326.28C1326.63 120.485 1326.8 117.877 1326.8 115.269C1326.98 112.487 1327.06 109.706 1327.06 106.924C1327.06 92.8413 1325.58 82.9312 1322.63 77.1938C1319.85 71.2826 1315.33 68.327 1309.07 68.327C1304.2 68.327 1299.94 69.8917 1296.29 73.0212C1292.64 76.1507 1289.68 81.7142 1287.42 89.7118C1285.16 97.5355 1283.68 108.663 1282.99 123.093Z" fill="#E5E1E3"/>
<path d="M1382.3 202.634V199.504L1392.73 198.461C1395.34 198.287 1396.99 197.418 1397.69 195.853C1398.56 194.115 1398.99 191.072 1398.99 186.726V87.8862C1398.99 82.3227 1398.47 78.4109 1397.42 76.1507C1396.38 73.8905 1393.86 72.5866 1389.86 72.2388L1379.95 71.4565L1380.21 68.5878L1437.33 65.7191L1438.89 67.5446V95.4492H1439.41C1442.89 84.8437 1448.19 76.9331 1455.32 71.7173C1462.45 66.5015 1470.01 63.8936 1478.01 63.8936C1487.4 63.8936 1494.7 66.5884 1499.92 71.978C1505.31 77.1938 1508 84.1483 1508 92.8412C1508 96.84 1507.3 100.665 1505.91 104.316C1504.52 107.793 1502.26 110.662 1499.13 112.922C1496 115.008 1491.74 116.052 1486.35 116.052C1480.1 116.052 1475.31 114.574 1472.01 111.618C1468.88 108.663 1467.32 105.185 1467.32 101.187C1467.32 98.9264 1467.75 96.6662 1468.62 94.406C1469.49 91.9719 1470.88 89.1033 1472.79 85.7999C1474.88 82.4966 1477.75 78.4978 1481.4 73.8036C1477.05 72.2388 1472.45 72.065 1467.58 73.282C1462.88 74.3252 1458.45 76.5853 1454.28 80.0625C1450.28 83.5397 1446.97 88.0601 1444.37 93.6236C1441.76 99.1871 1440.46 105.707 1440.46 113.183V186.726C1440.46 190.724 1440.8 193.593 1441.5 195.332C1442.19 196.896 1444.19 197.853 1447.5 198.2L1464.19 199.504V202.634H1382.3Z" fill="#E5E1E3"/>
</svg>
