<svg width="20" height="20" viewBox="0 0 20 20" fill="none" xmlns="http://www.w3.org/2000/svg">
<mask id="mask0_53_539" style="mask-type:alpha" maskUnits="userSpaceOnUse" x="0" y="0" width="20" height="20">
<rect width="20" height="20" fill="#D9D9D9"/>
</mask>
<g mask="url(#mask0_53_539)">
<path d="M4.99984 10.8327C4.76373 10.8327 4.56581 10.7528 4.40609 10.5931C4.24637 10.4334 4.1665 10.2355 4.1665 9.99935C4.1665 9.76324 4.24637 9.56532 4.40609 9.4056C4.56581 9.24588 4.76373 9.16602 4.99984 9.16602H14.9998C15.2359 9.16602 15.4339 9.24588 15.5936 9.4056C15.7533 9.56532 15.8332 9.76324 15.8332 9.99935C15.8332 10.2355 15.7533 10.4334 15.5936 10.5931C15.4339 10.7528 15.2359 10.8327 14.9998 10.8327H4.99984Z" fill="#E5E1E3" fill-opacity="0.8"/>
</g>
</svg>
